<mxfile host="app.diagrams.net" modified="2021-11-25T09:20:28.836Z" agent="5.0 (Macintosh; Intel Mac OS X 10_15_7) AppleWebKit/605.1.15 (KHTML, like Gecko) Version/15.1 Safari/605.1.15" etag="41BLBF9ZvGQHhx-mJqev" version="15.8.4" type="gitlab" pages="2">
  <diagram id="_wYo0rfzM_ZNE95Ijc1n" name="Infrastructure for Accessing Media">
    <mxGraphModel dx="2073" dy="2232" grid="1" gridSize="10" guides="1" tooltips="1" connect="1" arrows="1" fold="1" page="1" pageScale="1" pageWidth="827" pageHeight="1169" math="0" shadow="0">
      <root>
        <mxCell id="0" />
        <mxCell id="1" parent="0" />
        <mxCell id="-aCbt5Mg_uOudWNpZInE-1" value="" style="ellipse;shape=cloud;whiteSpace=wrap;html=1;" parent="1" vertex="1">
          <mxGeometry x="130" y="-10" width="1010" height="380" as="geometry" />
        </mxCell>
        <mxCell id="-aCbt5Mg_uOudWNpZInE-2" value="" style="endArrow=none;html=1;rounded=0;entryX=0.551;entryY=0.121;entryDx=0;entryDy=0;entryPerimeter=0;exitX=0.529;exitY=0.959;exitDx=0;exitDy=0;exitPerimeter=0;fillColor=#f8cecc;strokeColor=#b85450;" parent="1" source="-aCbt5Mg_uOudWNpZInE-1" target="-aCbt5Mg_uOudWNpZInE-1" edge="1">
          <mxGeometry width="50" height="50" relative="1" as="geometry">
            <mxPoint x="390" y="270" as="sourcePoint" />
            <mxPoint x="440" y="220" as="targetPoint" />
          </mxGeometry>
        </mxCell>
        <mxCell id="-aCbt5Mg_uOudWNpZInE-3" value="Video" style="rounded=1;whiteSpace=wrap;html=1;" parent="1" vertex="1">
          <mxGeometry x="450" y="150" width="120" height="60" as="geometry" />
        </mxCell>
        <mxCell id="-aCbt5Mg_uOudWNpZInE-4" value="Image" style="rounded=1;whiteSpace=wrap;html=1;" parent="1" vertex="1">
          <mxGeometry x="800" y="80" width="120" height="60" as="geometry" />
        </mxCell>
        <mxCell id="-aCbt5Mg_uOudWNpZInE-7" value="Im ersten Schritt hätte ich das ganz einfach gemacht, &lt;br&gt;- alle normalen Bilder werden direkt beim hochladen auf eine maximal Auflösung getastet (ohne dabei Format zu verlieren?&lt;br&gt;- Profilbilder sollten festes Format haben z.B. Quadrat, diese werden dann auch alles auf eine Auflösung skaliert. &amp;nbsp;Ich glaube Anfangs können wir es uns sparen verschiedene Versionen für Thumbnails etc. bereit zu halten" style="text;html=1;strokeColor=none;fillColor=none;align=left;verticalAlign=middle;whiteSpace=wrap;rounded=0;" parent="1" vertex="1">
          <mxGeometry x="690" y="140" width="310" height="160" as="geometry" />
        </mxCell>
        <mxCell id="-aCbt5Mg_uOudWNpZInE-8" value="Wichtige Frage für alle, was sind gute Cache Controller wert" style="shape=callout;whiteSpace=wrap;html=1;perimeter=calloutPerimeter;align=left;size=50;position=0.5;fillColor=#f8cecc;strokeColor=#b85450;" parent="1" vertex="1">
          <mxGeometry x="630" y="-120" width="170" height="140" as="geometry" />
        </mxCell>
        <mxCell id="-aCbt5Mg_uOudWNpZInE-9" value="" style="endArrow=none;dashed=1;html=1;dashPattern=1 3;strokeWidth=2;rounded=0;" parent="1" edge="1">
          <mxGeometry width="50" height="50" relative="1" as="geometry">
            <mxPoint y="440" as="sourcePoint" />
            <mxPoint x="1320" y="440" as="targetPoint" />
          </mxGeometry>
        </mxCell>
        <mxCell id="-aCbt5Mg_uOudWNpZInE-10" value="&lt;font size=&quot;1&quot;&gt;&lt;b style=&quot;font-size: 25px&quot;&gt;Cloud&lt;/b&gt;&lt;/font&gt;" style="text;html=1;strokeColor=none;fillColor=none;align=center;verticalAlign=middle;whiteSpace=wrap;rounded=0;" parent="1" vertex="1">
          <mxGeometry x="10" y="-60" width="60" height="30" as="geometry" />
        </mxCell>
        <mxCell id="-aCbt5Mg_uOudWNpZInE-11" value="&lt;font size=&quot;1&quot;&gt;&lt;b style=&quot;font-size: 25px&quot;&gt;Device&lt;/b&gt;&lt;/font&gt;" style="text;html=1;strokeColor=none;fillColor=none;align=center;verticalAlign=middle;whiteSpace=wrap;rounded=0;" parent="1" vertex="1">
          <mxGeometry x="10" y="470" width="60" height="30" as="geometry" />
        </mxCell>
        <mxCell id="-aCbt5Mg_uOudWNpZInE-25" value="&lt;&lt;interface&gt;&gt;&#xa;MediaCache" style="swimlane;fontStyle=0;childLayout=stackLayout;horizontal=1;startSize=40;fillColor=none;horizontalStack=0;resizeParent=1;resizeParentMax=0;resizeLast=0;collapsible=1;marginBottom=0;fontSize=15;align=center;" parent="1" vertex="1">
          <mxGeometry x="590" y="490" width="180" height="110" as="geometry" />
        </mxCell>
        <mxCell id="-aCbt5Mg_uOudWNpZInE-26" value="+ getSingleFile()&#xa;+ getImageFile()" style="text;strokeColor=none;fillColor=none;align=left;verticalAlign=top;spacingLeft=4;spacingRight=4;overflow=hidden;rotatable=0;points=[[0,0.5],[1,0.5]];portConstraint=eastwest;fontSize=15;" parent="-aCbt5Mg_uOudWNpZInE-25" vertex="1">
          <mxGeometry y="40" width="180" height="70" as="geometry" />
        </mxCell>
        <mxCell id="-aCbt5Mg_uOudWNpZInE-33" style="edgeStyle=orthogonalEdgeStyle;rounded=0;orthogonalLoop=1;jettySize=auto;html=1;fontSize=15;exitX=0.5;exitY=0;exitDx=0;exitDy=0;entryX=0.682;entryY=0.929;entryDx=0;entryDy=0;entryPerimeter=0;" parent="1" source="-aCbt5Mg_uOudWNpZInE-25" target="-aCbt5Mg_uOudWNpZInE-1" edge="1">
          <mxGeometry relative="1" as="geometry">
            <mxPoint x="520" y="520" as="targetPoint" />
            <Array as="points">
              <mxPoint x="680" y="440" />
              <mxPoint x="819" y="440" />
            </Array>
          </mxGeometry>
        </mxCell>
        <mxCell id="-aCbt5Mg_uOudWNpZInE-34" value="MediaCacheImpl" style="swimlane;fontStyle=0;childLayout=stackLayout;horizontal=1;startSize=40;fillColor=none;horizontalStack=0;resizeParent=1;resizeParentMax=0;resizeLast=0;collapsible=1;marginBottom=0;fontSize=15;align=center;" parent="1" vertex="1">
          <mxGeometry x="900" y="490" width="180" height="110" as="geometry" />
        </mxCell>
        <mxCell id="-aCbt5Mg_uOudWNpZInE-35" value="+ getSingleFile()&#xa;+ getImageFile()" style="text;strokeColor=none;fillColor=none;align=left;verticalAlign=top;spacingLeft=4;spacingRight=4;overflow=hidden;rotatable=0;points=[[0,0.5],[1,0.5]];portConstraint=eastwest;fontSize=15;" parent="-aCbt5Mg_uOudWNpZInE-34" vertex="1">
          <mxGeometry y="40" width="180" height="70" as="geometry" />
        </mxCell>
        <mxCell id="-aCbt5Mg_uOudWNpZInE-36" value="" style="endArrow=block;html=1;rounded=0;fontSize=15;exitX=0;exitY=0.25;exitDx=0;exitDy=0;entryX=1;entryY=0.5;entryDx=0;entryDy=0;endFill=0;" parent="1" source="-aCbt5Mg_uOudWNpZInE-34" target="-aCbt5Mg_uOudWNpZInE-26" edge="1">
          <mxGeometry width="50" height="50" relative="1" as="geometry">
            <mxPoint x="550" y="620" as="sourcePoint" />
            <mxPoint x="600" y="570" as="targetPoint" />
          </mxGeometry>
        </mxCell>
        <mxCell id="-aCbt5Mg_uOudWNpZInE-37" value="An easy implementation can be achieved using the flutter cache manager&amp;nbsp;" style="shape=callout;whiteSpace=wrap;html=1;perimeter=calloutPerimeter;fontSize=15;align=center;position2=0.06;" parent="1" vertex="1">
          <mxGeometry x="1070" y="380" width="160" height="110" as="geometry" />
        </mxCell>
        <mxCell id="-aCbt5Mg_uOudWNpZInE-39" value="NetworkPlaceholderImageWidget" style="rounded=1;whiteSpace=wrap;html=1;fontSize=15;align=center;horizontal=1;verticalAlign=top;" parent="1" vertex="1">
          <mxGeometry x="150" y="750" width="310" height="260" as="geometry" />
        </mxCell>
        <mxCell id="-aCbt5Mg_uOudWNpZInE-40" value="" style="endArrow=none;html=1;rounded=0;fontSize=15;exitX=0;exitY=0.25;exitDx=0;exitDy=0;entryX=1;entryY=0.25;entryDx=0;entryDy=0;" parent="1" source="-aCbt5Mg_uOudWNpZInE-39" target="-aCbt5Mg_uOudWNpZInE-39" edge="1">
          <mxGeometry width="50" height="50" relative="1" as="geometry">
            <mxPoint x="570" y="790" as="sourcePoint" />
            <mxPoint x="620" y="740" as="targetPoint" />
          </mxGeometry>
        </mxCell>
        <mxCell id="-aCbt5Mg_uOudWNpZInE-41" value="- URL&lt;br&gt;- Placeholder&lt;br&gt;- height?&lt;br&gt;- width?" style="text;html=1;strokeColor=none;fillColor=none;align=left;verticalAlign=top;whiteSpace=wrap;rounded=0;fontSize=15;" parent="1" vertex="1">
          <mxGeometry x="160" y="830" width="290" height="90" as="geometry" />
        </mxCell>
        <mxCell id="-aCbt5Mg_uOudWNpZInE-50" style="edgeStyle=orthogonalEdgeStyle;rounded=0;orthogonalLoop=1;jettySize=auto;html=1;exitX=0;exitY=0.5;exitDx=0;exitDy=0;entryX=1;entryY=0.5;entryDx=0;entryDy=0;fontSize=15;endArrow=block;endFill=0;" parent="1" source="-aCbt5Mg_uOudWNpZInE-42" target="-aCbt5Mg_uOudWNpZInE-39" edge="1">
          <mxGeometry relative="1" as="geometry" />
        </mxCell>
        <mxCell id="-aCbt5Mg_uOudWNpZInE-42" value="BlurredNetworkImageWidget" style="rounded=1;whiteSpace=wrap;html=1;fontSize=15;align=center;horizontal=1;verticalAlign=top;" parent="1" vertex="1">
          <mxGeometry x="580" y="750" width="310" height="260" as="geometry" />
        </mxCell>
        <mxCell id="-aCbt5Mg_uOudWNpZInE-43" value="" style="endArrow=none;html=1;rounded=0;fontSize=15;exitX=0;exitY=0.25;exitDx=0;exitDy=0;entryX=1;entryY=0.25;entryDx=0;entryDy=0;" parent="1" source="-aCbt5Mg_uOudWNpZInE-42" target="-aCbt5Mg_uOudWNpZInE-42" edge="1">
          <mxGeometry width="50" height="50" relative="1" as="geometry">
            <mxPoint x="1000" y="790" as="sourcePoint" />
            <mxPoint x="1050" y="740" as="targetPoint" />
          </mxGeometry>
        </mxCell>
        <mxCell id="-aCbt5Mg_uOudWNpZInE-44" value="- URL&lt;br&gt;- Placeholder&lt;br&gt;- height?&lt;br&gt;- width?" style="text;html=1;strokeColor=none;fillColor=none;align=left;verticalAlign=top;whiteSpace=wrap;rounded=0;fontSize=15;" parent="1" vertex="1">
          <mxGeometry x="590" y="830" width="290" height="80" as="geometry" />
        </mxCell>
        <mxCell id="-aCbt5Mg_uOudWNpZInE-49" style="edgeStyle=orthogonalEdgeStyle;rounded=0;orthogonalLoop=1;jettySize=auto;html=1;exitX=0.5;exitY=0;exitDx=0;exitDy=0;entryX=0.5;entryY=1;entryDx=0;entryDy=0;fontSize=15;endArrow=block;endFill=0;" parent="1" source="-aCbt5Mg_uOudWNpZInE-46" target="-aCbt5Mg_uOudWNpZInE-39" edge="1">
          <mxGeometry relative="1" as="geometry" />
        </mxCell>
        <mxCell id="-aCbt5Mg_uOudWNpZInE-46" value="CircularNetworkImageWidget" style="rounded=1;whiteSpace=wrap;html=1;fontSize=15;align=center;horizontal=1;verticalAlign=top;" parent="1" vertex="1">
          <mxGeometry x="150" y="1110" width="310" height="260" as="geometry" />
        </mxCell>
        <mxCell id="-aCbt5Mg_uOudWNpZInE-47" value="" style="endArrow=none;html=1;rounded=0;fontSize=15;exitX=0;exitY=0.25;exitDx=0;exitDy=0;entryX=1;entryY=0.25;entryDx=0;entryDy=0;" parent="1" source="-aCbt5Mg_uOudWNpZInE-46" target="-aCbt5Mg_uOudWNpZInE-46" edge="1">
          <mxGeometry width="50" height="50" relative="1" as="geometry">
            <mxPoint x="570" y="1150" as="sourcePoint" />
            <mxPoint x="620" y="1100" as="targetPoint" />
          </mxGeometry>
        </mxCell>
        <mxCell id="-aCbt5Mg_uOudWNpZInE-48" value="- URL&lt;br&gt;- Placeholder&lt;br&gt;- diameter" style="text;html=1;strokeColor=none;fillColor=none;align=left;verticalAlign=top;whiteSpace=wrap;rounded=0;fontSize=15;" parent="1" vertex="1">
          <mxGeometry x="160" y="1190" width="290" height="70" as="geometry" />
        </mxCell>
        <mxCell id="-aCbt5Mg_uOudWNpZInE-54" value="" style="edgeStyle=orthogonalEdgeStyle;rounded=0;orthogonalLoop=1;jettySize=auto;html=1;fontSize=15;endArrow=block;endFill=0;" parent="1" source="-aCbt5Mg_uOudWNpZInE-51" target="-aCbt5Mg_uOudWNpZInE-46" edge="1">
          <mxGeometry relative="1" as="geometry" />
        </mxCell>
        <mxCell id="-aCbt5Mg_uOudWNpZInE-51" value="UserImageWidget" style="rounded=1;whiteSpace=wrap;html=1;fontSize=15;align=center;horizontal=1;verticalAlign=top;" parent="1" vertex="1">
          <mxGeometry x="150" y="1450" width="310" height="260" as="geometry" />
        </mxCell>
        <mxCell id="-aCbt5Mg_uOudWNpZInE-52" value="" style="endArrow=none;html=1;rounded=0;fontSize=15;exitX=0;exitY=0.25;exitDx=0;exitDy=0;entryX=1;entryY=0.25;entryDx=0;entryDy=0;" parent="1" source="-aCbt5Mg_uOudWNpZInE-51" target="-aCbt5Mg_uOudWNpZInE-51" edge="1">
          <mxGeometry width="50" height="50" relative="1" as="geometry">
            <mxPoint x="570" y="1490" as="sourcePoint" />
            <mxPoint x="620" y="1440" as="targetPoint" />
          </mxGeometry>
        </mxCell>
        <mxCell id="-aCbt5Mg_uOudWNpZInE-53" value="- URL?&lt;br&gt;- diameter" style="text;html=1;strokeColor=none;fillColor=none;align=left;verticalAlign=top;whiteSpace=wrap;rounded=0;fontSize=15;" parent="1" vertex="1">
          <mxGeometry x="160" y="1530" width="290" height="70" as="geometry" />
        </mxCell>
        <mxCell id="-aCbt5Mg_uOudWNpZInE-55" value="" style="endArrow=none;html=1;rounded=0;fontSize=15;exitX=0.5;exitY=0;exitDx=0;exitDy=0;entryX=-0.033;entryY=0.992;entryDx=0;entryDy=0;entryPerimeter=0;" parent="1" source="-aCbt5Mg_uOudWNpZInE-39" target="-aCbt5Mg_uOudWNpZInE-26" edge="1">
          <mxGeometry width="50" height="50" relative="1" as="geometry">
            <mxPoint x="550" y="830" as="sourcePoint" />
            <mxPoint x="600" y="780" as="targetPoint" />
          </mxGeometry>
        </mxCell>
        <mxCell id="-aCbt5Mg_uOudWNpZInE-57" value="VideoWidget" style="rounded=1;whiteSpace=wrap;html=1;fontSize=15;align=center;horizontal=1;verticalAlign=top;" parent="1" vertex="1">
          <mxGeometry x="1120" y="750" width="310" height="260" as="geometry" />
        </mxCell>
        <mxCell id="-aCbt5Mg_uOudWNpZInE-58" value="" style="endArrow=none;html=1;rounded=0;fontSize=15;exitX=0;exitY=0.25;exitDx=0;exitDy=0;entryX=1;entryY=0.25;entryDx=0;entryDy=0;" parent="1" source="-aCbt5Mg_uOudWNpZInE-57" target="-aCbt5Mg_uOudWNpZInE-57" edge="1">
          <mxGeometry width="50" height="50" relative="1" as="geometry">
            <mxPoint x="1540" y="790" as="sourcePoint" />
            <mxPoint x="1590" y="740" as="targetPoint" />
          </mxGeometry>
        </mxCell>
        <mxCell id="-aCbt5Mg_uOudWNpZInE-59" value="- URL&lt;br&gt;" style="text;html=1;strokeColor=none;fillColor=none;align=left;verticalAlign=top;whiteSpace=wrap;rounded=0;fontSize=15;" parent="1" vertex="1">
          <mxGeometry x="1130" y="830" width="290" height="70" as="geometry" />
        </mxCell>
        <mxCell id="-aCbt5Mg_uOudWNpZInE-60" value="" style="endArrow=none;html=1;rounded=0;fontSize=15;entryX=0;entryY=0;entryDx=0;entryDy=0;exitX=1.006;exitY=0.957;exitDx=0;exitDy=0;exitPerimeter=0;" parent="1" source="-aCbt5Mg_uOudWNpZInE-26" target="-aCbt5Mg_uOudWNpZInE-57" edge="1">
          <mxGeometry width="50" height="50" relative="1" as="geometry">
            <mxPoint x="1090" y="1110" as="sourcePoint" />
            <mxPoint x="1140" y="1060" as="targetPoint" />
          </mxGeometry>
        </mxCell>
        <mxCell id="OjP2HE7NJDItHdvMWNYW-1" value="Für VBilder klappt diese Lösung auf jeden Fall. Videos sind aber schwieriger" style="shape=callout;whiteSpace=wrap;html=1;perimeter=calloutPerimeter;position2=0;" vertex="1" parent="1">
          <mxGeometry x="827" y="340" width="120" height="100" as="geometry" />
        </mxCell>
      </root>
    </mxGraphModel>
  </diagram>
  <diagram id="seKMjeTwpS_YRnTTNe9b" name="Cachen von Videos">
    <mxGraphModel dx="1699" dy="744" grid="1" gridSize="10" guides="1" tooltips="1" connect="1" arrows="1" fold="1" page="1" pageScale="1" pageWidth="827" pageHeight="1169" math="0" shadow="0">
      <root>
        <mxCell id="Quk-YpdZlBZdGGn1eAWW-0" />
        <mxCell id="Quk-YpdZlBZdGGn1eAWW-1" parent="Quk-YpdZlBZdGGn1eAWW-0" />
        <mxCell id="Quk-YpdZlBZdGGn1eAWW-2" value="Möglichkeit1:Plugin" style="text;html=1;strokeColor=none;fillColor=none;align=left;verticalAlign=middle;whiteSpace=wrap;rounded=0;" vertex="1" parent="Quk-YpdZlBZdGGn1eAWW-1">
          <mxGeometry x="10" y="40" width="150" height="30" as="geometry" />
        </mxCell>
        <mxCell id="Quk-YpdZlBZdGGn1eAWW-3" value="Aufbauend auf dem Video Player Plugin von Flutter gibt es einige andere Plugins, welche das Cachen von Videos unterstützen. Viele davon sehen aber eher shady aus, außerdem sind sie sehr intransparent inwiefern gemacht wird. Das für mich arm besten aussehende Plugin ist BetterPlayer. Problem is noch nicht in Version1 Released und führt deshalb möglicherweise zu Braking changes" style="text;html=1;strokeColor=none;fillColor=none;align=left;verticalAlign=top;whiteSpace=wrap;rounded=0;" vertex="1" parent="Quk-YpdZlBZdGGn1eAWW-1">
          <mxGeometry x="10" y="80" width="750" height="60" as="geometry" />
        </mxCell>
        <mxCell id="Quk-YpdZlBZdGGn1eAWW-4" value="Möglichkeit 2 :Cache selber implementieren" style="text;html=1;strokeColor=none;fillColor=none;align=left;verticalAlign=middle;whiteSpace=wrap;rounded=0;" vertex="1" parent="Quk-YpdZlBZdGGn1eAWW-1">
          <mxGeometry x="10" y="280" width="400" height="30" as="geometry" />
        </mxCell>
        <mxCell id="Quk-YpdZlBZdGGn1eAWW-5" value="Video Cache ist leider viel komplizierter als Image Cache. Angenommen wir haben bis zu 30 Sekunden lange Videos. Wie können den Nutzer nicht bitten zuerst das gante Video herunterzuladen um es in den Cache zu legen und dann aus diesem abzuspielen. Möglichkeit könnte es sein Video in kleinere Chunks aufzuteilen, welche wir dann immer vorladen und nacheinander abspielen. Einige Fragen sind dann aber&lt;br&gt;- NAND wear mit dem ganzen Cache&lt;br&gt;- sollten wir einen anderen Cache nutzen um nicht Bilder zu verdrängen&lt;br&gt;- bekommen wir einen flüssigen Übergang zwischen den verschiedenen Videos hin" style="text;html=1;strokeColor=none;fillColor=none;align=left;verticalAlign=top;whiteSpace=wrap;rounded=0;" vertex="1" parent="Quk-YpdZlBZdGGn1eAWW-1">
          <mxGeometry x="10" y="320" width="750" height="120" as="geometry" />
        </mxCell>
        <mxCell id="Quk-YpdZlBZdGGn1eAWW-6" value="" style="rounded=0;whiteSpace=wrap;html=1;align=left;verticalAlign=top;" vertex="1" parent="Quk-YpdZlBZdGGn1eAWW-1">
          <mxGeometry x="10" y="540" width="800" height="40" as="geometry" />
        </mxCell>
        <mxCell id="Quk-YpdZlBZdGGn1eAWW-7" value="Chunk 1" style="rounded=0;whiteSpace=wrap;html=1;align=center;verticalAlign=top;fillColor=#dae8fc;strokeColor=#6c8ebf;" vertex="1" parent="Quk-YpdZlBZdGGn1eAWW-1">
          <mxGeometry x="10" y="540" width="170" height="40" as="geometry" />
        </mxCell>
        <mxCell id="Quk-YpdZlBZdGGn1eAWW-8" value="Chunk 2" style="rounded=0;whiteSpace=wrap;html=1;align=center;verticalAlign=top;fillColor=#f8cecc;strokeColor=#b85450;" vertex="1" parent="Quk-YpdZlBZdGGn1eAWW-1">
          <mxGeometry x="180" y="540" width="170" height="40" as="geometry" />
        </mxCell>
        <mxCell id="Quk-YpdZlBZdGGn1eAWW-9" value="Chunk 3" style="rounded=0;whiteSpace=wrap;html=1;align=center;verticalAlign=top;fillColor=#d5e8d4;strokeColor=#82b366;" vertex="1" parent="Quk-YpdZlBZdGGn1eAWW-1">
          <mxGeometry x="350" y="540" width="170" height="40" as="geometry" />
        </mxCell>
        <mxCell id="Quk-YpdZlBZdGGn1eAWW-10" value="Chunk 4" style="rounded=0;whiteSpace=wrap;html=1;align=center;verticalAlign=top;fillColor=#fff2cc;strokeColor=#d6b656;" vertex="1" parent="Quk-YpdZlBZdGGn1eAWW-1">
          <mxGeometry x="520" y="540" width="170" height="40" as="geometry" />
        </mxCell>
        <mxCell id="Quk-YpdZlBZdGGn1eAWW-11" value="Video" style="text;html=1;strokeColor=none;fillColor=none;align=center;verticalAlign=middle;whiteSpace=wrap;rounded=0;" vertex="1" parent="Quk-YpdZlBZdGGn1eAWW-1">
          <mxGeometry x="380" y="500" width="60" height="30" as="geometry" />
        </mxCell>
        <mxCell id="Quk-YpdZlBZdGGn1eAWW-12" value="" style="endArrow=classic;html=1;rounded=0;fillColor=#dae8fc;strokeColor=#6c8ebf;" edge="1" parent="Quk-YpdZlBZdGGn1eAWW-1">
          <mxGeometry width="50" height="50" relative="1" as="geometry">
            <mxPoint x="10" y="630" as="sourcePoint" />
            <mxPoint x="10" y="600" as="targetPoint" />
          </mxGeometry>
        </mxCell>
        <mxCell id="Quk-YpdZlBZdGGn1eAWW-13" value="" style="endArrow=classic;html=1;rounded=0;fillColor=#f8cecc;strokeColor=#b85450;" edge="1" parent="Quk-YpdZlBZdGGn1eAWW-1">
          <mxGeometry width="50" height="50" relative="1" as="geometry">
            <mxPoint x="20" y="630" as="sourcePoint" />
            <mxPoint x="20" y="600" as="targetPoint" />
          </mxGeometry>
        </mxCell>
        <mxCell id="Quk-YpdZlBZdGGn1eAWW-14" value="" style="endArrow=classic;html=1;rounded=0;fillColor=#f8cecc;strokeColor=#b85450;" edge="1" parent="Quk-YpdZlBZdGGn1eAWW-1">
          <mxGeometry width="50" height="50" relative="1" as="geometry">
            <mxPoint x="179" y="630" as="sourcePoint" />
            <mxPoint x="179" y="600" as="targetPoint" />
          </mxGeometry>
        </mxCell>
        <mxCell id="Quk-YpdZlBZdGGn1eAWW-15" value="" style="endArrow=classic;html=1;rounded=0;fillColor=#dae8fc;strokeColor=#6c8ebf;" edge="1" parent="Quk-YpdZlBZdGGn1eAWW-1">
          <mxGeometry width="50" height="50" relative="1" as="geometry">
            <mxPoint x="179" y="690" as="sourcePoint" />
            <mxPoint x="179" y="660" as="targetPoint" />
          </mxGeometry>
        </mxCell>
        <mxCell id="Quk-YpdZlBZdGGn1eAWW-16" value="" style="endArrow=classic;html=1;rounded=0;fillColor=#f8cecc;strokeColor=#b85450;" edge="1" parent="Quk-YpdZlBZdGGn1eAWW-1">
          <mxGeometry width="50" height="50" relative="1" as="geometry">
            <mxPoint x="189" y="690" as="sourcePoint" />
            <mxPoint x="189" y="660" as="targetPoint" />
          </mxGeometry>
        </mxCell>
        <mxCell id="Quk-YpdZlBZdGGn1eAWW-17" value="" style="endArrow=classic;html=1;rounded=0;fillColor=#f8cecc;strokeColor=#b85450;" edge="1" parent="Quk-YpdZlBZdGGn1eAWW-1">
          <mxGeometry width="50" height="50" relative="1" as="geometry">
            <mxPoint x="350" y="690" as="sourcePoint" />
            <mxPoint x="350" y="660" as="targetPoint" />
          </mxGeometry>
        </mxCell>
        <mxCell id="Quk-YpdZlBZdGGn1eAWW-18" value="" style="endArrow=classic;html=1;rounded=0;fillColor=#dae8fc;strokeColor=#6c8ebf;" edge="1" parent="Quk-YpdZlBZdGGn1eAWW-1">
          <mxGeometry width="50" height="50" relative="1" as="geometry">
            <mxPoint x="350" y="740" as="sourcePoint" />
            <mxPoint x="350" y="710" as="targetPoint" />
          </mxGeometry>
        </mxCell>
        <mxCell id="Quk-YpdZlBZdGGn1eAWW-19" value="" style="endArrow=classic;html=1;rounded=0;fillColor=#f8cecc;strokeColor=#b85450;" edge="1" parent="Quk-YpdZlBZdGGn1eAWW-1">
          <mxGeometry width="50" height="50" relative="1" as="geometry">
            <mxPoint x="360" y="740" as="sourcePoint" />
            <mxPoint x="360" y="710" as="targetPoint" />
          </mxGeometry>
        </mxCell>
        <mxCell id="Quk-YpdZlBZdGGn1eAWW-20" value="" style="endArrow=classic;html=1;rounded=0;fillColor=#f8cecc;strokeColor=#b85450;" edge="1" parent="Quk-YpdZlBZdGGn1eAWW-1">
          <mxGeometry width="50" height="50" relative="1" as="geometry">
            <mxPoint x="519" y="740" as="sourcePoint" />
            <mxPoint x="519" y="710" as="targetPoint" />
          </mxGeometry>
        </mxCell>
        <mxCell id="Quk-YpdZlBZdGGn1eAWW-21" value="current time" style="text;html=1;strokeColor=#6c8ebf;fillColor=#dae8fc;align=center;verticalAlign=middle;whiteSpace=wrap;rounded=0;" vertex="1" parent="Quk-YpdZlBZdGGn1eAWW-1">
          <mxGeometry x="-90" y="600" width="70" height="20" as="geometry" />
        </mxCell>
        <mxCell id="Quk-YpdZlBZdGGn1eAWW-22" value="video download" style="text;html=1;strokeColor=#b85450;fillColor=#f8cecc;align=center;verticalAlign=middle;whiteSpace=wrap;rounded=0;" vertex="1" parent="Quk-YpdZlBZdGGn1eAWW-1">
          <mxGeometry x="-100" y="640" width="90" height="20" as="geometry" />
        </mxCell>
        <mxCell id="Quk-YpdZlBZdGGn1eAWW-28" value="" style="shape=umlLifeline;participant=umlActor;perimeter=lifelinePerimeter;whiteSpace=wrap;html=1;container=1;collapsible=0;recursiveResize=0;verticalAlign=top;spacingTop=36;outlineConnect=0;" vertex="1" parent="Quk-YpdZlBZdGGn1eAWW-1">
          <mxGeometry x="10" y="810" width="20" height="500" as="geometry" />
        </mxCell>
        <mxCell id="Quk-YpdZlBZdGGn1eAWW-29" value=":Cache" style="shape=umlLifeline;perimeter=lifelinePerimeter;whiteSpace=wrap;html=1;container=1;collapsible=0;recursiveResize=0;outlineConnect=0;align=center;verticalAlign=top;" vertex="1" parent="Quk-YpdZlBZdGGn1eAWW-1">
          <mxGeometry x="110" y="820" width="200" height="570" as="geometry" />
        </mxCell>
        <mxCell id="Quk-YpdZlBZdGGn1eAWW-30" value="" style="endArrow=open;endFill=1;endSize=12;html=1;rounded=0;" edge="1" parent="Quk-YpdZlBZdGGn1eAWW-29">
          <mxGeometry width="160" relative="1" as="geometry">
            <mxPoint x="-90" y="80" as="sourcePoint" />
            <mxPoint x="50" y="80" as="targetPoint" />
          </mxGeometry>
        </mxCell>
        <mxCell id="Quk-YpdZlBZdGGn1eAWW-50" value="is downloading chunk 2?&amp;nbsp;" style="shape=umlFrame;whiteSpace=wrap;html=1;align=center;verticalAlign=top;width=140;height=30;" vertex="1" parent="Quk-YpdZlBZdGGn1eAWW-29">
          <mxGeometry x="-100" y="360" width="300" height="80" as="geometry" />
        </mxCell>
        <mxCell id="Quk-YpdZlBZdGGn1eAWW-31" value="LoadChunk[0]" style="text;html=1;align=center;verticalAlign=middle;resizable=0;points=[];autosize=1;strokeColor=none;fillColor=none;" vertex="1" parent="Quk-YpdZlBZdGGn1eAWW-1">
          <mxGeometry x="40" y="880" width="90" height="20" as="geometry" />
        </mxCell>
        <mxCell id="Quk-YpdZlBZdGGn1eAWW-32" value="" style="endArrow=open;endFill=1;endSize=12;html=1;rounded=0;" edge="1" parent="Quk-YpdZlBZdGGn1eAWW-1" source="Quk-YpdZlBZdGGn1eAWW-28" target="Quk-YpdZlBZdGGn1eAWW-28">
          <mxGeometry width="160" relative="1" as="geometry">
            <mxPoint x="310" y="1050" as="sourcePoint" />
            <mxPoint x="470" y="1050" as="targetPoint" />
            <Array as="points">
              <mxPoint x="110" y="920" />
              <mxPoint x="110" y="950" />
            </Array>
          </mxGeometry>
        </mxCell>
        <mxCell id="Quk-YpdZlBZdGGn1eAWW-33" value="Show Buffer" style="text;html=1;align=center;verticalAlign=middle;resizable=0;points=[];autosize=1;strokeColor=none;fillColor=none;" vertex="1" parent="Quk-YpdZlBZdGGn1eAWW-1">
          <mxGeometry x="30" y="920" width="80" height="20" as="geometry" />
        </mxCell>
        <mxCell id="Quk-YpdZlBZdGGn1eAWW-34" value="" style="endArrow=open;endFill=1;endSize=12;html=1;rounded=0;" edge="1" parent="Quk-YpdZlBZdGGn1eAWW-1" source="Quk-YpdZlBZdGGn1eAWW-29" target="Quk-YpdZlBZdGGn1eAWW-28">
          <mxGeometry width="160" relative="1" as="geometry">
            <mxPoint x="310" y="1050" as="sourcePoint" />
            <mxPoint x="470" y="1050" as="targetPoint" />
            <Array as="points">
              <mxPoint x="40" y="980" />
            </Array>
          </mxGeometry>
        </mxCell>
        <mxCell id="Quk-YpdZlBZdGGn1eAWW-35" value="Chunk Loaded" style="edgeLabel;html=1;align=center;verticalAlign=middle;resizable=0;points=[];" vertex="1" connectable="0" parent="Quk-YpdZlBZdGGn1eAWW-34">
          <mxGeometry x="-0.106" relative="1" as="geometry">
            <mxPoint x="-12" as="offset" />
          </mxGeometry>
        </mxCell>
        <mxCell id="Quk-YpdZlBZdGGn1eAWW-38" value="LoadChunk[1]" style="endArrow=open;endFill=1;endSize=12;html=1;rounded=0;" edge="1" parent="Quk-YpdZlBZdGGn1eAWW-1" source="Quk-YpdZlBZdGGn1eAWW-28" target="Quk-YpdZlBZdGGn1eAWW-29">
          <mxGeometry width="160" relative="1" as="geometry">
            <mxPoint x="310" y="1050" as="sourcePoint" />
            <mxPoint x="470" y="1050" as="targetPoint" />
            <Array as="points">
              <mxPoint x="120" y="1020" />
            </Array>
          </mxGeometry>
        </mxCell>
        <mxCell id="Quk-YpdZlBZdGGn1eAWW-39" value="" style="endArrow=open;endFill=1;endSize=12;html=1;rounded=0;" edge="1" parent="Quk-YpdZlBZdGGn1eAWW-1" source="Quk-YpdZlBZdGGn1eAWW-29" target="Quk-YpdZlBZdGGn1eAWW-28">
          <mxGeometry width="160" relative="1" as="geometry">
            <mxPoint x="290" y="1160" as="sourcePoint" />
            <mxPoint x="450" y="1160" as="targetPoint" />
            <Array as="points">
              <mxPoint x="130" y="1070" />
            </Array>
          </mxGeometry>
        </mxCell>
        <mxCell id="Quk-YpdZlBZdGGn1eAWW-40" value=":VideoPlayer" style="shape=umlLifeline;perimeter=lifelinePerimeter;whiteSpace=wrap;html=1;container=1;collapsible=0;recursiveResize=0;outlineConnect=0;align=center;verticalAlign=top;" vertex="1" parent="Quk-YpdZlBZdGGn1eAWW-1">
          <mxGeometry x="300" y="820" width="100" height="390" as="geometry" />
        </mxCell>
        <mxCell id="Quk-YpdZlBZdGGn1eAWW-41" value="" style="endArrow=open;endFill=1;endSize=12;html=1;rounded=0;" edge="1" parent="Quk-YpdZlBZdGGn1eAWW-1" source="Quk-YpdZlBZdGGn1eAWW-28" target="Quk-YpdZlBZdGGn1eAWW-40">
          <mxGeometry width="160" relative="1" as="geometry">
            <mxPoint x="290" y="1210" as="sourcePoint" />
            <mxPoint x="450" y="1210" as="targetPoint" />
            <Array as="points">
              <mxPoint x="280" y="1050" />
            </Array>
          </mxGeometry>
        </mxCell>
        <mxCell id="Quk-YpdZlBZdGGn1eAWW-42" value="add Video" style="edgeLabel;html=1;align=center;verticalAlign=middle;resizable=0;points=[];" vertex="1" connectable="0" parent="Quk-YpdZlBZdGGn1eAWW-41">
          <mxGeometry x="0.3693" y="2" relative="1" as="geometry">
            <mxPoint x="1" as="offset" />
          </mxGeometry>
        </mxCell>
        <mxCell id="Quk-YpdZlBZdGGn1eAWW-43" value="" style="endArrow=open;endFill=1;endSize=12;html=1;rounded=0;" edge="1" parent="Quk-YpdZlBZdGGn1eAWW-1">
          <mxGeometry width="160" relative="1" as="geometry">
            <mxPoint x="19.57142857142844" y="1100" as="sourcePoint" />
            <mxPoint x="350" y="1100" as="targetPoint" />
            <Array as="points">
              <mxPoint x="280.5" y="1100" />
            </Array>
          </mxGeometry>
        </mxCell>
        <mxCell id="Quk-YpdZlBZdGGn1eAWW-44" value="add Video" style="edgeLabel;html=1;align=center;verticalAlign=middle;resizable=0;points=[];" vertex="1" connectable="0" parent="Quk-YpdZlBZdGGn1eAWW-43">
          <mxGeometry x="0.3693" y="2" relative="1" as="geometry">
            <mxPoint x="1" as="offset" />
          </mxGeometry>
        </mxCell>
        <mxCell id="Quk-YpdZlBZdGGn1eAWW-45" value="" style="endArrow=open;endFill=1;endSize=12;html=1;rounded=0;" edge="1" parent="Quk-YpdZlBZdGGn1eAWW-1" source="Quk-YpdZlBZdGGn1eAWW-40" target="Quk-YpdZlBZdGGn1eAWW-28">
          <mxGeometry width="160" relative="1" as="geometry">
            <mxPoint x="290" y="1210" as="sourcePoint" />
            <mxPoint x="450" y="1210" as="targetPoint" />
          </mxGeometry>
        </mxCell>
        <mxCell id="Quk-YpdZlBZdGGn1eAWW-46" value="" style="endArrow=open;endFill=1;endSize=12;html=1;rounded=0;" edge="1" parent="Quk-YpdZlBZdGGn1eAWW-1" source="Quk-YpdZlBZdGGn1eAWW-40" target="Quk-YpdZlBZdGGn1eAWW-28">
          <mxGeometry width="160" relative="1" as="geometry">
            <mxPoint x="290" y="1160" as="sourcePoint" />
            <mxPoint x="450" y="1160" as="targetPoint" />
            <Array as="points">
              <mxPoint x="230" y="1160" />
            </Array>
          </mxGeometry>
        </mxCell>
        <mxCell id="Quk-YpdZlBZdGGn1eAWW-47" value="On video chunk finished" style="edgeLabel;html=1;align=center;verticalAlign=middle;resizable=0;points=[];" vertex="1" connectable="0" parent="Quk-YpdZlBZdGGn1eAWW-46">
          <mxGeometry x="0.0544" relative="1" as="geometry">
            <mxPoint as="offset" />
          </mxGeometry>
        </mxCell>
        <mxCell id="Quk-YpdZlBZdGGn1eAWW-48" value="Chunk 1" style="rounded=0;whiteSpace=wrap;html=1;align=center;verticalAlign=middle;fillColor=#dae8fc;strokeColor=#6c8ebf;labelPosition=center;verticalLabelPosition=middle;horizontal=0;" vertex="1" parent="Quk-YpdZlBZdGGn1eAWW-1">
          <mxGeometry x="-40" y="890" width="40" height="270" as="geometry" />
        </mxCell>
        <mxCell id="Quk-YpdZlBZdGGn1eAWW-49" value="Chuink2" style="rounded=0;whiteSpace=wrap;html=1;align=center;verticalAlign=middle;fillColor=#f8cecc;strokeColor=#b85450;labelPosition=center;verticalLabelPosition=middle;horizontal=0;" vertex="1" parent="Quk-YpdZlBZdGGn1eAWW-1">
          <mxGeometry x="-40" y="1190" width="40" height="270" as="geometry" />
        </mxCell>
        <mxCell id="Quk-YpdZlBZdGGn1eAWW-52" value="Yes -&amp;gt; Wait for download to finish" style="text;html=1;strokeColor=none;fillColor=none;align=center;verticalAlign=middle;whiteSpace=wrap;rounded=0;" vertex="1" parent="Quk-YpdZlBZdGGn1eAWW-1">
          <mxGeometry x="80" y="1220" width="180" height="30" as="geometry" />
        </mxCell>
        <mxCell id="Quk-YpdZlBZdGGn1eAWW-53" value="This check should be equal to check if VideoPlayer already contains given video?" style="shape=callout;whiteSpace=wrap;html=1;perimeter=calloutPerimeter;align=center;verticalAlign=top;position2=1;fillColor=#f5f5f5;fontColor=#333333;strokeColor=#666666;" vertex="1" parent="Quk-YpdZlBZdGGn1eAWW-1">
          <mxGeometry x="-180" y="1125" width="160" height="125" as="geometry" />
        </mxCell>
        <mxCell id="Quk-YpdZlBZdGGn1eAWW-54" value="LoadChunk[2]" style="endArrow=open;endFill=1;endSize=12;html=1;rounded=0;" edge="1" parent="Quk-YpdZlBZdGGn1eAWW-1">
          <mxGeometry width="160" relative="1" as="geometry">
            <mxPoint x="20" y="1280" as="sourcePoint" />
            <mxPoint x="210" y="1280" as="targetPoint" />
            <Array as="points">
              <mxPoint x="120.5" y="1280" />
            </Array>
          </mxGeometry>
        </mxCell>
        <mxCell id="Quk-YpdZlBZdGGn1eAWW-55" value="has next video?" style="shape=umlFrame;whiteSpace=wrap;html=1;align=center;verticalAlign=top;width=120;height=21;" vertex="1" parent="Quk-YpdZlBZdGGn1eAWW-1">
          <mxGeometry x="330" y="1169" width="310" height="141" as="geometry" />
        </mxCell>
        <mxCell id="Quk-YpdZlBZdGGn1eAWW-56" value="No: check if video was last, if not go to buffer state, show last frame and buffering indicator" style="text;html=1;strokeColor=none;fillColor=none;align=center;verticalAlign=middle;whiteSpace=wrap;rounded=0;" vertex="1" parent="Quk-YpdZlBZdGGn1eAWW-1">
          <mxGeometry x="340" y="1200" width="280" height="30" as="geometry" />
        </mxCell>
        <mxCell id="Quk-YpdZlBZdGGn1eAWW-57" value="Yes: show video" style="text;html=1;strokeColor=none;fillColor=none;align=center;verticalAlign=middle;whiteSpace=wrap;rounded=0;" vertex="1" parent="Quk-YpdZlBZdGGn1eAWW-1">
          <mxGeometry x="340" y="1250" width="270" height="20" as="geometry" />
        </mxCell>
        <mxCell id="Quk-YpdZlBZdGGn1eAWW-58" value="" style="endArrow=none;html=1;rounded=0;exitX=-0.006;exitY=0.489;exitDx=0;exitDy=0;exitPerimeter=0;entryX=0.997;entryY=0.496;entryDx=0;entryDy=0;entryPerimeter=0;" edge="1" parent="Quk-YpdZlBZdGGn1eAWW-1" source="Quk-YpdZlBZdGGn1eAWW-55" target="Quk-YpdZlBZdGGn1eAWW-55">
          <mxGeometry width="50" height="50" relative="1" as="geometry">
            <mxPoint x="310" y="1450" as="sourcePoint" />
            <mxPoint x="360" y="1400" as="targetPoint" />
          </mxGeometry>
        </mxCell>
      </root>
    </mxGraphModel>
  </diagram>
</mxfile>
